# xmcd CD database file
#
# Track frame offsets:
#	183
#	16803
#	32975
#	50498
#	64463
#	78485
#	91698
#	105193
#	121090
#	134823
#	148740
#	160945
#	176088
#	188708
#	202230
#	218705
#
# Disc length: 3097 seconds
#
# Revision: 0
# Processed by: cddbd v1.5.2PL0 Copyright (c) Steve Scherf et al.
# Submitted via: Feurio! 1.67 - http://www.feurio.com
#
DISCID=e50c1710
DTITLE=Ronald - Oh my Daling Karoline
DYEAR=1900
DGENRE=
TTITLE0=Doch dann kamst Du
TTITLE1=Es hängt ein Pferdehalfter an der Wand
TTITLE2=Oh Shenandoah
TTITLE3=Kein Gold im blue River
TTITLE4=Laura, oh Laura
TTITLE5=Geisterreiter
TTITLE6=Kleine Annabell
TTITLE7=Oh my Darling Caroline
TTITLE8=Schwarze Reiter ziehen durch die Nacht
TTITLE9=Anja, Anja
TTITLE10=Kenn ein Land
TTITLE11=Adios my Darling
TTITLE12=Hohe Tannen
TTITLE13=Dunja, Du
TTITLE14=Der Stein unserer Liebe
TTITLE15=Allein in der Prärie
EXTD=
EXTT0=
EXTT1=
EXTT2=
EXTT3=
EXTT4=
EXTT5=
EXTT6=
EXTT7=
EXTT8=
EXTT9=
EXTT10=
EXTT11=
EXTT12=
EXTT13=
EXTT14=
EXTT15=
PLAYORDER=
